# xmcd
#
# Track frame offsets:
#	150
#	14906
#	30313
#	44897
#	56637
#	78398
#	88067
#	103273
#	117331
#	132258
#	144500
#	163304
#	178113
#	191488
#	204716
#	218891
#	239130
#	256646
#	266347
#	281592
#	290781
#
# Disc length: 4101 seconds
#
# Revision: 2
# Processed by: cddbd v1.5.2PL0 Copyright (c) Steve Scherf et al.
# Submitted via: dBpowerAMP V4.0
#
DISCID=4f100315
DTITLE=Various Artist - Hott Urban Volume 42 Can
DYEAR=2018
DGENRE=Urban
TTITLE0=Lil Wayne - Uproar
TTITLE1=Gucci Mane X Bruno Mars X Kodak Black - Wake Up In The Sky
TTITLE2=French Montana ft. Drake - No Stylist
TTITLE3=Swizz Beatz ft. Lil Wayne - Pistol On My Side (P.O.M.S)
TTITLE4=T.I. ft. Young Thug - The Weekend
TTITLE5=Tyga - Dip
TTITLE6=City Girls - Where The Bag At
TTITLE7=Jeremih and TY Dolla $ign - Goin' Thru Some Thangz
TTITLE8=Saweetie and London On Da Track ft. Rich The Kid And G-Eazy - Up Now
TTITLE9=Juicy J ft. Travis Scott - Neighbor
TTITLE10=H.E.R. ft. Bryson Tiller - Could've Been
TTITLE11=Young Dolph ft. Key Glock - Major
TTITLE12=Queen Naija - Karma
TTITLE13=Agnez Mo ft. Chris Brown - Overdose
TTITLE14=The Game ft. TY Dolla $ign And Jeremih - DTF
TTITLE15=Anderson .Paak - Tints
TTITLE16=Tyga ft. Offset - Taste [Super Clean]
TTITLE17=Kanye West ft. Lil Pump - I Love It [Super Clean]
TTITLE18=Buddy ft. TY Dolla $ign - Hey Up There
TTITLE19=Trippie Redd - Taking A Walk
TTITLE20=India.Arie - That Magic
EXTD=
EXTT0=
EXTT1=
EXTT2=
EXTT3=
EXTT4=
EXTT5=
EXTT6=
EXTT7=
EXTT8=
EXTT9=
EXTT10=
EXTT11=
EXTT12=
EXTT13=
EXTT14=
EXTT15=
EXTT16=
EXTT17=
EXTT18=
EXTT19=
EXTT20=
PLAYORDER=
